<!DOCTYPE svg PUBLIC "-//W3C//DTD SVG 20010904//EN" "http://www.w3.org/TR/2001/REC-SVG-20010904/DTD/svg10.dtd">
<svg version="1.0" xmlns="http://www.w3.org/2000/svg" width="12px" height="18px" viewBox="0 0 120 180" preserveAspectRatio="xMidYMid meet">
<g id="layer1" fill="#ffffff" stroke="none">
 <path d="M0 90 l0 -90 38 0 c62 0 79 19 79 92 1 35 -4 69 -9 76 -6 6 -32 12 -59 12 l-49 0 0 -90z m74 64 c21 -8 21 -40 0 -48 -33 -13 -44 -6 -44 24 0 30 11 37 44 24z m7 -90 c10 -13 10 -17 -2 -25 -27 -17 -49 -10 -49 16 0 29 30 35 51 9z"/>
 </g>

</svg>