<!DOCTYPE svg PUBLIC "-//W3C//DTD SVG 20010904//EN" "http://www.w3.org/TR/2001/REC-SVG-20010904/DTD/svg10.dtd">
<svg version="1.0" xmlns="http://www.w3.org/2000/svg" width="27px" height="23px" viewBox="0 0 270 230" preserveAspectRatio="xMidYMid meet">
<g id="layer1" fill="#ffffff" stroke="none">
 <path d="M43 219 c-44 -13 -51 -29 -14 -29 31 0 41 -13 20 -25 -23 -15 -43 -99 -32 -138 4 -17 6 -17 22 -3 9 8 33 22 54 31 35 15 37 14 37 -5 0 -29 43 -54 77 -45 16 5 35 7 44 6 16 -2 19 17 7 49 -3 8 -13 36 -22 61 -20 54 -41 76 -93 95 -44 15 -56 16 -100 3z"/>
 </g>

</svg>